<svg width="87" height="80" viewBox="0 0 87 80" fill="none" xmlns="http://www.w3.org/2000/svg">
<path d="M15.1833 74.3529C18.7879 74.3529 26.0782 71.6045 32.7577 67.7767C39.3439 68.65 45.9884 68.1373 52.0462 66.3452C52.0767 66.2543 52.0742 66.1303 52.0742 66.042V64.7596C52.0742 64.6993 52.0767 64.5425 52.0462 64.4869C48.1031 65.6726 43.7073 66.3503 39.1795 66.3503C37.1484 66.3503 35.2552 66.1827 33.2736 65.9824C32.7729 65.9493 32.099 66.0144 31.6083 66.287C25.2597 69.7444 18.4112 72.6266 15.4773 72.5866C15.1933 72.5938 15.1528 72.447 15.3964 72.1652C16.8894 70.376 19.862 67.1124 21.3664 63.8823C21.6672 63.2249 21.4847 62.7141 20.9293 62.4414C9.84629 57.3235 2.66261 47.8288 2.66261 36.8321C2.66261 20.4911 18.9186 7.37711 39.1795 7.37711C59.4757 7.37711 75.6986 20.4911 75.6986 36.8321C75.6986 39.1885 75.3816 41.474 74.7475 43.6861C75.1787 44.2442 75.5245 44.8521 75.6648 45.5254C75.7765 45.8225 75.8244 46.0919 75.8674 46.3584C76.8614 43.6781 77.5286 40.3909 77.5286 36.8321C77.5286 19.6326 60.5908 5.58008 39.1795 5.58008C17.7678 5.58008 0.830078 19.6326 0.830078 36.8321C0.830078 48.2138 8.22044 58.183 19.4075 63.7634C17.8097 66.6543 15.4215 69.3252 13.9888 71.0239C12.3712 72.9149 12.88 74.3529 15.1833 74.3529ZM56.6779 68.518C57.2527 68.518 57.7109 68.0595 57.7109 67.4872V58.1939C57.7109 57.6217 57.2527 57.1963 56.6779 57.1963C56.1053 57.1963 55.6471 57.6217 55.6471 58.1939V67.4872C55.6471 68.0595 56.1053 68.518 56.6779 68.518ZM63.9653 74.1198C64.5401 74.1198 64.963 73.6617 64.963 73.0869V52.5616C64.963 52.0195 64.5401 51.5283 63.9653 51.5283C63.3574 51.5283 62.9345 52.0195 62.9345 52.5616V73.0869C62.9345 73.6617 63.3574 74.1198 63.9653 74.1198ZM71.2196 79.9983C71.825 79.9983 72.2504 79.5729 72.2504 78.9675V46.7515C72.2504 46.1766 71.825 45.7181 71.2196 45.7181C70.6448 45.7181 70.2194 46.1766 70.2194 46.7515V78.9675C70.2194 79.5427 70.6422 79.9983 71.2196 79.9983ZM78.5019 76.0846C79.0793 76.0846 79.5352 75.6593 79.5352 75.087V50.6273C79.5352 50.0219 79.0793 49.5965 78.5019 49.5965C77.9296 49.5965 77.4737 50.0219 77.4737 50.6273V75.087C77.4737 75.6593 77.9296 76.0846 78.5019 76.0846ZM85.7918 70.5956C86.3667 70.5956 86.8226 70.1422 86.8226 69.5648V56.1164C86.8226 55.5416 86.3667 55.0831 85.7918 55.0831C85.217 55.0831 84.7585 55.5441 84.7585 56.1164V69.5648C84.7585 70.1396 85.217 70.5956 85.7918 70.5956Z" fill="black"/>
</svg>
