<svg width="596" height="443" viewBox="0 0 596 443" fill="none" xmlns="http://www.w3.org/2000/svg">
<path fill-rule="evenodd" clip-rule="evenodd" d="M595.784 300.355C597.74 378.89 532.09 443.713 454.33 442.6C368.142 441.391 343.113 360.369 310.53 361.499C267.39 358.442 278.094 382.624 186.962 389.893C84.032 398.103 0 306.187 0 202.931C0 99.6754 83.708 15.2333 186.962 15.9693C274.77 17.4493 281.326 59.1573 325.53 53.4983C363.834 51.1113 365.131 3.07034 439.33 0.0813384C496.631 -2.28266 543.812 47.2143 543.812 105.355C543.812 131.485 531.44 140.496 535.53 172.499C540.1 200.681 593.775 219.731 595.784 300.355Z" fill="url(#paint0_linear_1210_3623)"/>
<defs>
<linearGradient id="paint0_linear_1210_3623" x1="8.88563e-06" y1="221.499" x2="596" y2="221.499" gradientUnits="userSpaceOnUse">
<stop stop-color="#FF3E89"/>
<stop offset="1" stop-color="#9584FF"/>
</linearGradient>
</defs>
</svg>
