<svg width="1024" height="1024" viewBox="0 0 1024 1024" fill="none" xmlns="http://www.w3.org/2000/svg">
<path d="M412.16 2H611.84C684.768 2 739.342 2.00161 782.623 5.59591C825.881 9.18822 857.678 16.3589 885.087 30.597C931.479 54.6954 969.305 92.5211 993.403 138.913C1007.64 166.322 1014.81 198.119 1018.4 241.377C1022 284.658 1022 339.232 1022 412.16V611.84C1022 684.768 1022 739.342 1018.4 782.623C1014.81 825.881 1007.64 857.678 993.403 885.087C969.305 931.479 931.479 969.305 885.087 993.403C857.678 1007.64 825.881 1014.81 782.623 1018.4C739.342 1022 684.768 1022 611.84 1022H412.16C339.232 1022 284.658 1022 241.377 1018.4C198.119 1014.81 166.322 1007.64 138.913 993.403C92.5211 969.305 54.6954 931.479 30.597 885.087C16.3589 857.678 9.18822 825.881 5.59591 782.623C2.00161 739.342 2 684.768 2 611.84V412.16C2 339.232 2.00161 284.658 5.59591 241.377C9.18822 198.119 16.3589 166.322 30.597 138.913C54.6954 92.5211 92.5211 54.6954 138.913 30.597C166.322 16.3589 198.119 9.18822 241.377 5.59591C284.658 2.00161 339.232 2 412.16 2Z" stroke="white" stroke-width="4"/>
</svg>
