<svg width="89" height="63" viewBox="0 0 89 63" fill="none" xmlns="http://www.w3.org/2000/svg">
<path d="M0.796875 51.0254C0.796875 51.8921 1.16945 52.477 1.87595 52.8076C6.39645 54.9526 8.69826 56.9888 10.8423 61.7627C11.2217 62.5113 11.8136 62.8838 12.6143 62.8838H76.8087C77.6095 62.8838 78.2013 62.5113 78.5807 61.7627C80.7247 56.9888 83.0265 54.9526 87.547 52.8076C88.2569 52.477 88.6261 51.8921 88.6261 51.0254V12.4658C88.6261 11.5991 88.2569 11.0142 87.547 10.6836C83.0265 8.53862 80.7247 6.50242 78.5807 1.72852C78.2013 0.980016 77.6095 0.607422 76.8087 0.607422H12.6143C11.8136 0.607422 11.2217 0.980016 10.8423 1.72852C8.69826 6.50242 6.39645 8.53862 1.87595 10.6836C1.16945 11.0142 0.796875 11.5991 0.796875 12.4658V51.0254ZM3.01466 50.8173V12.6738C8.05525 10.3189 10.4991 7.86822 12.8463 2.82522H76.5767C78.9239 7.86822 81.3678 10.3189 86.4083 12.6738V50.8173C81.3678 53.1723 78.9239 55.623 76.5767 60.666H12.8463C10.4991 55.623 8.05525 53.1723 3.01466 50.8173ZM13.1598 47.3018C13.1598 49.2163 14.4361 50.4927 16.3473 50.4927H73.0758C74.9903 50.4927 76.2633 49.2163 76.2633 47.3018V16.3711C76.2633 14.4565 74.9903 13.1801 73.0758 13.1801H16.3473C14.4361 13.1801 13.1598 14.4565 13.1598 16.3711V47.3018ZM24.6012 48.4013V15.3169H64.8218V48.4013H24.6012ZM15.2931 36.6621V27.0107H22.4679V36.6621H15.2931ZM66.9551 36.6621V27.0107H74.1299V36.6621H66.9551ZM15.2931 46.9912V38.75H22.4679V48.4013H16.6612C15.8517 48.4013 15.2931 47.7973 15.2931 46.9912ZM66.9551 48.4013V38.75H74.1299V46.9912C74.1299 47.7973 73.5713 48.4013 72.7618 48.4013H66.9551ZM66.9551 24.9228V15.3169H72.7618C73.5713 15.3169 74.1299 15.8755 74.1299 16.685V24.9228H66.9551ZM15.2931 24.9228V16.685C15.2931 15.8755 15.8517 15.3169 16.6612 15.3169H22.4679V24.9228H15.2931Z" fill="black"/>
</svg>
