<svg width="96" height="78" viewBox="0 0 96 78" fill="none" xmlns="http://www.w3.org/2000/svg">
<path d="M29.0816 77.6033H66.3868C72.2623 77.6033 75.0255 74.8889 75.1232 69.0657L75.6114 30.905L86.5348 33.319C88.9459 33.8801 90.3951 32.9465 91.1896 30.3923L94.8316 18.4289C95.6236 15.8781 94.4766 14.0031 91.9846 12.8493L65.733 0.714045C64.4928 0.104145 63.6183 0.243845 62.6324 0.756045C58.7213 2.83074 53.1065 4.23315 47.7115 4.23315C42.3199 4.23315 36.7018 2.83074 32.794 0.756045C31.8082 0.243845 30.9791 0.104145 29.6934 0.714045L3.43848 12.8493C0.950278 14.0031 -0.200162 15.8781 0.594778 18.4289L4.23298 30.3923C5.02788 32.9465 6.52588 33.8801 8.93708 33.319L19.8116 30.905L20.2999 69.0657C20.3975 74.8889 23.1607 77.6033 29.0816 77.6033ZM29.0885 75.4094C24.6251 75.4094 22.546 73.4177 22.4972 69.0837L22.0509 29.8078C22.0509 28.8346 21.3639 28.3781 20.4259 28.5768L8.65778 31.1046C7.38728 31.3908 6.62998 30.8708 6.30528 29.7922L2.73978 17.9552C2.31748 16.4894 2.65588 15.7004 4.19198 14.9567L31.5948 2.34345C36.6798 4.89625 42.6002 6.39965 47.7115 6.39965C52.8717 6.39965 58.7433 4.89625 63.8282 2.34345L91.2306 14.9567C92.8126 15.7004 93.1506 16.4894 92.6836 17.9552L89.1178 29.7922C88.7931 30.8708 88.0392 31.3908 86.8141 31.1046L75.0426 28.5768C74.1046 28.3781 73.4176 28.8346 73.4176 29.8078L72.9713 69.0837C72.9224 73.4177 70.8433 75.4094 66.38 75.4094H29.0885ZM47.7115 17.2941C56.3009 17.2941 63.7706 10.7615 64.3126 2.05295L62.1427 1.88985C61.6304 9.48065 55.0196 15.1422 47.7115 15.1422C40.4488 15.1422 33.796 9.48065 33.2804 1.88985L31.1104 2.05295C31.7013 10.7615 39.1256 17.2941 47.7115 17.2941Z" fill="black"/>
</svg>
