<svg width="200" height="200" viewBox="0 0 200 200" fill="none" xmlns="http://www.w3.org/2000/svg">
<path fill-rule="evenodd" clip-rule="evenodd" d="M5.77665 28.9385C0 40.2758 0 55.1172 0 84.8V115.2C0 144.883 0 159.724 5.77665 171.061C10.8579 181.034 18.9659 189.142 28.9385 194.223C40.2758 200 55.1172 200 84.8 200H115.2C144.883 200 159.724 200 171.061 194.223C181.034 189.142 189.142 181.034 194.223 171.061C200 159.724 200 144.883 200 115.2V84.8C200 55.1172 200 40.2758 194.223 28.9385C189.142 18.9659 181.034 10.8579 171.061 5.77665C159.724 0 144.883 0 115.2 0H84.8C55.1172 0 40.2758 0 28.9385 5.77665C18.9659 10.8579 10.8579 18.9659 5.77665 28.9385ZM155.514 169.999C163.475 170.112 170.196 163.521 169.996 155.537C169.862 150.219 167.502 147.536 165.733 145.524C164.776 144.436 163.991 143.544 163.827 142.538C163.588 140.678 163.899 139.582 164.209 138.488C164.442 137.668 164.675 136.85 164.675 135.711C164.675 129.8 159.844 124.768 153.978 125.008C149.535 125.186 147.645 126.931 146.057 128.398C144.93 129.438 143.955 130.338 142.327 130.439C140.318 130.695 139.068 130.001 137.513 129.137C135.566 128.055 133.139 126.707 128.141 126.624C117.57 126.549 109 135.134 109 145.632C109 156.13 117.603 165.475 128.141 164.64C133.302 164.231 135.273 163.296 136.751 162.595C137.945 162.028 138.818 161.614 140.792 161.753C142.08 161.709 143.253 162.911 144.717 164.41C147.041 166.791 150.098 169.923 155.514 169.999Z" fill="white" fill-opacity="0.2"/>
</svg>
